Coordinates
version=1
nRows=13
nColumns=34
inDegrees=yes

Units are S.I. units (second, meters, Newtons, ...)
If the header above contains a line with 'inDegrees', this indicates whether rotational values are in degrees (yes) or radians (no).

endheader
time	pelvis_tilt	pelvis_list	pelvis_rotation	pelvis_tx	pelvis_ty	pelvis_tz	hip_flexion_r	hip_adduction_r	hip_rotation_r	knee_angle_r	ankle_angle_r	subtalar_angle_r	mtp_angle_r	hip_flexion_l	hip_adduction_l	hip_rotation_l	knee_angle_l	ankle_angle_l	subtalar_angle_l	mtp_angle_l	lumbar_extension	lumbar_bending	lumbar_rotation	arm_flex_r	arm_add_r	arm_rot_r	elbow_flex_r	pro_sup_r	arm_flex_l	arm_add_l	arm_rot_l	elbow_flex_l	pro_sup_l
      1.43333330	    -22.44362882	      2.30040490	      4.50689427	      1.91931993	      0.87297121	     -0.12374811	      5.12171113	      0.43161933	    -29.41371886	      0.35249653	     16.49343957	     11.69886230	      0.00000000	      4.41120382	     -4.06782176	    -12.92259900	     20.92956952	    -11.37836486	     -1.33719983	      0.00000000	     15.47382944	     -3.25406970	    -20.20302948	      4.81602735	    -13.74976671	     27.90594758	     43.34361438	     87.47320180	    -36.88974826	      4.47171198	    -33.32102250	     54.71130052	    107.52461363
      1.45000000	    -22.57149896	      4.38402555	      4.16012967	      1.92692863	      0.87651199	     -0.12093835	      4.67256410	     -1.51773721	    -29.66397421	      0.00000000	     15.52606323	     12.09108419	      0.00000000	      5.68653021	     -1.69740827	    -14.78140783	     19.38435768	     -9.75539250	     -1.59175130	      0.00000000	     15.36067081	     -5.47847780	    -19.12576484	      6.06372093	    -12.92605497	     27.72283684	     44.24731354	     87.40546478	    -37.09911763	      4.14031755	    -33.39590125	     54.03746257	    107.43527651
      1.46666670	    -22.74464493	      5.78112550	      3.71561160	      1.93825540	      0.87707809	     -0.11883615	      4.32270399	     -2.82492453	    -29.86105180	      0.00000000	     14.81283240	     12.88651001	      0.00000000	      5.96327560	     -0.02616211	    -17.94761536	     16.37059095	     -6.89258142	      1.73015451	      0.00000000	     15.37680394	     -6.64651191	    -17.51097971	      6.58580220	    -12.78103282	     27.04527932	     46.26143696	     87.23265552	    -36.55252173	      3.61285010	    -33.49898063	     52.27532108	    106.82788674
      1.48333330	    -23.31088688	      6.72724434	      3.53174968	      1.95028562	      0.87673047	     -0.11775348	      4.14718808	     -3.75341025	    -29.91170478	      0.00000000	     14.22148733	     13.26159625	      0.00000000	      6.45249951	      1.70888436	    -18.49675947	     12.74962901	     -4.79596601	      1.88641366	      0.00000000	     16.12569122	     -7.73915499	    -17.08878379	      7.54563504	    -12.49661767	     26.80450557	     47.08266917	     87.21675745	    -37.09003814	      3.92539654	    -33.46003519	     51.86749720	    106.73835263
      1.50000000	    -24.09714740	      7.32617575	      2.90486021	      1.95928090	      0.87718563	     -0.11540532	      4.06700018	     -4.30179601	    -29.62803451	      0.00000000	     14.10593957	     14.40674240	      0.00000000	      7.43665744	      2.73372945	    -19.86472363	      9.68967110	      1.92660702	      7.52484659	      0.00000000	     17.27042798	     -8.20111742	    -17.11931329	      8.72264464	    -12.47407772	     27.31304671	     49.26848753	     87.39732397	    -37.89838175	      4.72523181	    -34.24266630	     51.47938098	    105.85429115
      1.51666670	    -24.67653637	      7.82565269	      1.89490763	      1.96988996	      0.87699000	     -0.11285915	      4.00464567	     -4.66151012	    -28.97360515	      0.00000000	     14.12742640	     14.86312539	      0.00000000	      7.84832021	      3.71431261	    -18.78394379	      6.70412746	      5.31066684	      7.76245138	      0.00000000	     18.24080621	     -8.55224388	    -16.52788651	      9.97761838	    -12.11340526	     27.35392086	     49.92376182	     87.42238951	    -38.72357130	      5.46698515	    -34.30705043	     51.28220624	    105.71953989
      1.53333330	    -25.35209096	      8.19043801	      0.97151416	      1.97847154	      0.87304079	     -0.11070562	      4.05359375	     -4.91813793	    -28.40434434	      0.02284066	     14.72014526	     15.21420380	      0.00000000	      9.31103167	      4.06660790	    -19.69464635	      5.74413041	     10.49558021	     11.03076352	      0.00000000	     19.42390621	     -9.24149477	    -18.79517234	     14.32491838	    -11.49379900	     35.36256872	     47.46100648	     87.87614344	    -40.60340209	      8.47928484	    -38.44113241	     52.24635635	    101.78869660
      1.55000000	    -25.45887796	      8.83551455	     -0.30802316	      1.98641836	      0.87066965	     -0.10777600	      3.88260120	     -5.43819217	    -27.94700803	      0.03506802	     14.81797657	     15.53457817	      0.00000000	     10.42489736	      4.65867451	    -19.79296953	      4.87396774	     12.66551225	     10.22683536	      0.00000000	     19.78135488	     -9.76799556	    -18.29761242	     15.18317752	    -10.94864073	     35.34109508	     47.80531199	     87.78568835	    -41.40590925	      9.07834728	    -38.39148973	     51.69298730	    101.69729639
      1.56666670	    -25.47967076	      9.29892445	     -1.03316301	      1.99115499	      0.86879232	     -0.10556350	      3.79633969	     -5.93534851	    -26.87808203	      0.31798383	     15.89423205	     15.56346108	      0.00000000	     11.98992488	      5.00239261	    -19.30201362	      4.85055378	     15.44740153	      9.91074319	      0.00000000	     20.01736803	    -10.09514299	    -18.53688148	     16.84358905	    -10.02310040	     37.24286740	     45.86352573	     86.75717235	    -41.27343645	      9.47561394	    -38.88069007	     49.45103382	    100.03455020
      1.58333330	    -25.23247624	     10.07725686	     -1.82582371	      1.99335326	      0.86444278	     -0.10380011	      3.45528626	     -6.91807871	    -25.88883842	      0.95891627	     17.24225613	     15.38981523	      0.00000000	     13.70482338	      5.62698280	    -18.15069523	      4.65046601	     18.55952914	      9.46639033	      0.00000000	     19.59915582	    -10.85490654	    -17.77231337	     17.42832661	     -9.65820149	     37.42667455	     45.65747445	     86.63316711	    -41.12545056	      9.32509647	    -38.87199505	     49.44711948	     99.84572996
      1.60000000	    -24.70716261	     10.84903196	     -2.44090709	      1.99647449	      0.85892157	     -0.10300860	      3.36595102	     -7.94437702	    -24.70773012	      2.05166250	     19.02656487	     14.95048892	      0.00000000	     15.13276483	      6.28332286	    -17.26885476	      4.25868325	     21.16514496	      9.23727265	      0.00000000	     18.58515416	    -11.73268777	    -17.25341344	     18.07706651	     -9.17545995	     37.44296546	     45.52317725	     86.54132910	    -40.65133655	      9.02132071	    -38.82381820	     49.33594544	     99.72101912
      1.61666670	    -24.10233734	     11.73910126	     -3.09256171	      2.00279301	      0.85934053	     -0.10099503	      3.02367080	     -8.98063658	    -23.00949059	      2.53752812	     20.57596847	     14.14008689	      0.00000000	     16.38002214	      7.08162696	    -18.09414737	      2.87105788	     22.70618199	     10.69707631	      0.00000000	     17.58599253	    -12.50867831	    -16.50988345	     18.98669013	     -8.26782329	     37.20429826	     44.19859944	     86.02355984	    -39.54917467	      8.10387870	    -38.03078748	     48.81800339	     99.06800515
      1.63333330	    -23.92626416	     12.53617210	     -3.11294150	      2.01252483	      0.86015357	     -0.10064484	      2.85144654	     -9.89533492	    -22.80861051	      2.82252696	     21.59160191	     13.80883837	      0.00000000	     17.74702810	      7.99836713	    -18.23991910	      1.07904117	     22.98669930	     11.18921983	      0.00000000	     16.79690800	    -13.49811959	    -16.39434935	     19.53482900	     -7.78299994	     37.13704928	     44.13364703	     85.94975996	    -38.75199491	      7.51407352	    -37.80463210	     48.94787417	     98.95992545
